<?xml version="1.0" standalone="no"?>
<!DOCTYPE svg PUBLIC "-//W3C//DTD SVG 20010904//EN"
 "http://www.w3.org/TR/2001/REC-SVG-20010904/DTD/svg10.dtd">
<svg version="1.0" xmlns="http://www.w3.org/2000/svg"
 width="3496.000000pt" height="3496.000000pt" viewBox="0 0 3496.000000 3496.000000"
 preserveAspectRatio="xMidYMid meet">
<metadata>
Created by potrace 1.14, written by Peter Selinger 2001-2017
</metadata>
<g transform="translate(0.000000,3496.000000) scale(0.100000,-0.100000)"
fill="#000000" stroke="none">
<path d="M25085 23315 c-96 -15 -273 -56 -411 -96 -318 -91 -696 -308 -1044
-600 -190 -159 -315 -300 -543 -612 l-77 -107 -108 74 c-379 259 -751 427
-1162 526 -433 104 -548 109 -843 36 -163 -41 -236 -73 -365 -163 -122 -84
-209 -171 -299 -298 -112 -158 -163 -271 -208 -460 l-22 -90 -12 60 c-34 168
-97 411 -128 495 -50 135 -124 279 -205 396 -158 231 -257 333 -464 482 -176
125 -305 184 -516 237 -226 56 -332 69 -483 61 -168 -9 -258 -22 -427 -62
-275 -64 -378 -106 -538 -219 -146 -104 -204 -158 -294 -279 -154 -206 -202
-312 -271 -591 -85 -347 -100 -581 -52 -815 33 -160 69 -283 107 -368 62 -136
215 -337 304 -399 l30 -20 -51 4 c-68 7 -298 -47 -392 -92 -158 -76 -360 -232
-558 -432 l-152 -154 0 353 c1 445 -11 552 -96 903 -105 434 -250 726 -540
1087 -338 421 -909 804 -1420 951 -124 36 -370 93 -490 113 -136 23 -425 24
-556 1 -164 -28 -398 -86 -539 -133 -442 -146 -908 -480 -1178 -842 -51 -69
-94 -118 -96 -110 -2 7 -16 65 -31 128 -34 144 -83 247 -178 376 -93 126 -154
186 -290 285 -196 142 -327 201 -580 263 -242 59 -316 70 -492 69 -182 0 -282
-15 -581 -88 -438 -108 -748 -255 -1129 -540 -60 -45 -151 -118 -201 -163
l-92 -81 -183 93 c-214 108 -361 162 -584 217 -274 66 -378 81 -580 82 -197 1
-262 -7 -489 -59 -277 -64 -401 -116 -591 -249 -136 -95 -197 -153 -290 -277
-95 -126 -126 -195 -169 -369 -74 -304 -75 -417 -5 -724 35 -149 77 -283 113
-354 l25 -49 -182 -73 c-1248 -496 -2073 -1119 -2564 -1934 -114 -188 -244
-475 -311 -685 -66 -205 -131 -516 -168 -805 -24 -190 -25 -632 -1 -825 43
-346 154 -712 303 -997 159 -304 315 -521 554 -767 492 -506 1143 -887 2010
-1176 250 -84 419 -131 735 -205 227 -53 539 -114 740 -144 77 -12 165 -26
195 -31 187 -32 910 -105 1235 -125 650 -40 1756 -57 2315 -36 433 16 1137 49
1320 61 628 42 844 59 1180 95 124 13 302 31 395 40 262 23 534 53 705 75 85
11 205 27 265 35 61 8 144 19 185 24 153 20 361 53 580 92 124 22 263 47 310
55 263 45 745 143 955 194 22 5 94 21 160 35 238 51 543 122 810 190 653 167
862 221 1025 265 102 27 298 79 435 115 138 37 347 93 465 126 118 33 330 92
470 130 837 228 1091 301 1675 482 187 58 387 120 445 137 58 18 132 40 165
50 323 97 908 287 1225 397 908 315 1278 442 1322 452 35 8 38 7 96 -53 33
-33 99 -120 146 -193 110 -165 184 -247 311 -341 140 -103 247 -152 435 -198
135 -33 170 -38 275 -38 103 0 142 5 278 37 87 20 196 52 241 70 156 64 365
216 541 392 66 67 140 136 164 155 l43 33 19 -24 c44 -56 92 -133 114 -184 27
-61 65 -200 65 -239 0 -23 -4 -26 -32 -26 -41 0 -179 -25 -261 -46 -272 -70
-574 -217 -767 -372 -390 -314 -715 -794 -901 -1332 -93 -268 -135 -579 -110
-815 32 -295 104 -509 242 -720 60 -92 219 -255 299 -308 224 -146 476 -191
722 -128 298 76 569 323 748 680 78 156 150 394 190 625 25 148 25 173 -2 76
-99 -367 -219 -730 -258 -780 -10 -14 -31 -45 -46 -70 -58 -98 -84 -107 -84
-27 0 58 4 71 88 347 55 180 92 321 142 540 34 149 101 467 110 522 5 29 13
71 19 93 38 161 135 715 166 955 24 185 27 419 8 585 -8 77 -15 148 -15 158 1
10 -14 62 -32 115 -19 53 -39 121 -46 150 -13 55 -53 146 -69 156 -5 3 -23 35
-40 71 -17 36 -36 65 -42 65 -6 0 -7 5 -3 12 4 7 3 8 -4 4 -14 -8 -61 41 -62
64 0 8 9 30 21 49 l21 35 42 -45 c23 -24 62 -73 86 -109 25 -36 48 -66 53 -68
4 -2 7 -7 7 -12 0 -4 15 -30 34 -58 45 -68 123 -254 142 -343 9 -41 22 -83 29
-94 25 -41 48 -134 40 -167 -9 -43 -9 -54 1 -308 9 -230 10 -227 29 53 7 97 7
97 33 97 51 0 169 -37 240 -75 173 -91 252 -268 209 -472 -37 -172 -125 -277
-310 -367 -177 -87 -237 -166 -237 -317 0 -85 14 -124 86 -234 60 -93 104
-182 202 -409 184 -421 370 -576 691 -576 153 0 276 43 409 142 30 22 54 38
55 36 1 -1 13 -25 27 -53 83 -165 254 -228 400 -149 89 48 189 182 234 311
l13 38 7 -65 c14 -129 58 -240 118 -297 55 -53 116 -73 221 -73 137 0 228 28
346 107 52 34 95 62 96 60 1 -1 8 -24 15 -50 26 -98 105 -167 188 -167 133 0
162 38 243 315 79 274 215 545 319 639 45 41 52 43 75 20 20 -21 16 -63 -32
-309 -75 -384 -49 -569 92 -663 69 -46 115 -56 240 -56 87 1 124 6 175 23 147
51 205 98 574 464 351 351 486 496 703 760 932 1138 1445 2232 1578 3367 37
314 30 745 -16 1039 -21 132 -36 177 -25 76 26 -252 33 -497 15 -587 -11 -60
-28 -239 -45 -498 -6 -84 -39 -333 -58 -435 -9 -44 -18 -98 -22 -120 -28 -187
-109 -473 -196 -695 -56 -142 -81 -188 -132 -245 -20 -22 -36 -44 -36 -48 0
-18 -66 -116 -77 -117 -7 0 -13 2 -13 5 0 6 44 142 165 510 45 138 99 304 119
370 20 66 46 147 56 180 21 65 45 167 54 229 4 21 9 42 11 46 6 9 49 243 60
325 12 87 13 97 20 255 9 192 1 260 -80 760 -33 198 -88 367 -239 731 -20 47
-46 136 -59 198 -14 63 -31 119 -41 129 -49 51 -77 85 -116 143 -56 83 -167
225 -244 313 -54 60 -281 278 -377 361 -97 84 -169 144 -214 179 -70 55 -74
59 -45 51 101 -29 379 -216 560 -376 36 -32 108 -106 160 -165 52 -59 102
-114 111 -123 9 -9 47 -59 86 -111 78 -106 115 -195 127 -304 2 -13 13 -34 24
-47 43 -47 46 -51 136 -192 20 -31 59 -85 87 -119 27 -34 62 -86 77 -115 14
-30 28 -50 30 -45 5 15 -78 243 -133 364 -103 229 -286 518 -458 725 -246 295
-607 600 -974 821 -134 81 -469 251 -605 307 -38 15 -68 30 -68 32 0 3 13 63
30 135 48 206 63 349 57 533 -6 170 -18 247 -73 467 -64 257 -133 406 -287
622 -121 170 -265 315 -429 431 -224 158 -322 203 -576 266 -190 47 -287 55
-497 40 -448 -32 -943 -166 -1285 -348 -286 -152 -648 -431 -854 -658 -440
-487 -770 -1089 -986 -1800 -132 -435 -247 -972 -296 -1375 -31 -262 -30 -801
3 -1014 l6 -38 -39 26 c-23 14 -84 36 -146 51 l-108 26 -109 -26 c-78 -19
-122 -35 -152 -57 l-42 -30 6 308 c7 371 29 598 98 1019 68 409 146 751 284
1240 214 760 321 1165 385 1471 23 108 33 187 37 290 5 133 4 147 -27 279 -31
131 -36 143 -94 229 -50 74 -79 104 -151 159 -108 81 -142 101 -309 178 -268
125 -557 173 -801 134z m415 -414 c74 -19 273 -107 382 -168 82 -47 124 -87
155 -151 27 -55 28 -62 27 -207 0 -128 -5 -173 -33 -304 -55 -266 -126 -538
-323 -1226 -144 -506 -249 -944 -323 -1345 l-26 -145 -302 0 c-328 -1 -492
-15 -687 -59 -58 -13 -106 -23 -107 -22 -3 2 71 274 118 434 17 57 27 108 22
112 -4 4 -165 53 -358 110 -192 56 -415 121 -495 145 l-145 43 -54 -107 c-60
-118 -180 -380 -273 -594 -33 -78 -62 -144 -64 -146 -2 -2 -48 16 -101 42
-163 76 -635 262 -810 318 l-42 14 81 125 c128 196 378 592 378 599 0 9 -527
180 -610 197 -102 22 -306 30 -353 15 -63 -21 -87 -47 -87 -94 0 -23 10 -62
21 -87 66 -141 -21 -297 -171 -308 -50 -4 -70 1 -156 38 -188 79 -386 202
-496 308 -308 296 -393 799 -208 1234 65 153 207 322 333 397 148 87 266 115
462 108 476 -17 1077 -267 1622 -676 87 -65 167 -128 177 -140 11 -11 24 -21
30 -21 6 1 110 136 231 302 255 348 363 478 501 604 424 385 890 620 1344 678
74 9 266 -3 340 -23z m-15845 -46 c415 -68 738 -274 874 -558 159 -331 48
-698 -324 -1073 -221 -223 -465 -366 -760 -444 -165 -44 -282 -60 -475 -67
-245 -7 -394 9 -760 85 -22 4 -20 0 15 -28 70 -56 238 -166 376 -245 261 -149
609 -313 1274 -602 506 -220 819 -357 997 -438 161 -74 166 -79 149 -155 -14
-63 -62 -112 -156 -159 -93 -47 -174 -64 -305 -64 -188 0 -329 28 -800 157
-453 123 -634 166 -863 207 l-122 21 -325 185 c-550 314 -701 417 -908 618
-138 133 -226 247 -292 378 -81 161 -115 313 -103 469 l6 76 -124 40 c-344
110 -551 103 -636 -21 -29 -43 -47 -128 -40 -195 17 -164 158 -287 407 -358
52 -14 110 -35 128 -46 41 -25 80 -91 88 -150 17 -119 -119 -261 -310 -325
-76 -25 -92 -27 -261 -27 -158 0 -196 3 -310 27 -416 88 -735 268 -946 533
-248 312 -340 754 -229 1094 75 226 298 419 600 521 159 53 266 70 477 76 373
11 646 -53 1028 -242 94 -46 238 -122 320 -169 l150 -84 49 56 c27 32 101 109
165 172 378 376 924 650 1461 735 117 18 374 18 485 0z m3700 -21 c417 -64
836 -246 1197 -521 131 -99 372 -340 466 -464 216 -289 361 -612 432 -960 45
-222 53 -346 47 -789 -3 -228 -9 -425 -12 -437 -7 -21 -9 -21 -34 -9 -42 22
-324 135 -415 166 -224 78 -517 133 -678 128 -102 -3 -109 -2 -113 17 -2 11
-11 58 -20 105 -24 126 -81 330 -126 445 -82 211 -177 370 -299 499 -166 174
-337 256 -535 256 -195 0 -365 -83 -458 -222 -125 -190 -75 -424 110 -515 49
-23 72 -28 192 -34 158 -8 237 -29 327 -87 106 -69 175 -167 211 -302 37 -137
12 -432 -38 -463 -12 -8 -16 -19 -13 -33 7 -26 -60 -160 -116 -236 -85 -113
-216 -198 -369 -241 -115 -32 -393 -31 -544 1 -522 112 -1004 444 -1292 891
-266 412 -325 966 -156 1471 208 622 790 1123 1512 1300 101 24 158 34 339 54
62 7 282 -5 385 -20z m5088 11 c242 -36 484 -158 674 -338 286 -271 459 -668
504 -1151 15 -159 7 -473 -16 -646 -42 -324 -156 -785 -322 -1302 l-66 -207
-44 -7 c-64 -9 -149 4 -228 37 -155 64 -436 235 -653 396 -104 77 -113 86
-108 111 26 125 40 409 27 555 -21 223 -75 379 -168 478 -69 74 -131 103 -218
104 -64 0 -76 -4 -134 -38 -94 -56 -147 -70 -244 -65 -67 3 -92 10 -136 33
-122 67 -243 255 -303 471 -30 110 -33 435 -4 594 99 555 386 860 897 955 187
34 396 42 542 20z m11702 -38 c500 -171 860 -609 962 -1167 23 -129 23 -416
-1 -555 -134 -782 -552 -1194 -1274 -1255 -224 -19 -515 13 -748 84 -126 38
-154 56 -188 123 -18 36 -21 108 -6 149 6 15 44 60 86 100 99 97 129 158 129
269 0 162 -57 270 -172 327 -63 30 -75 33 -163 33 -198 -1 -389 -102 -588
-310 -339 -354 -545 -957 -569 -1664 l-6 -184 -176 6 c-155 5 -621 44 -753 63
-46 6 -48 8 -48 39 0 110 48 460 95 701 155 782 418 1465 765 1984 201 300
431 548 697 753 390 299 852 481 1358 537 44 4 172 7 285 6 l205 -2 110 -37z
m-19519 -1884 c2 -196 17 -305 74 -533 44 -175 90 -305 145 -408 18 -35 28
-61 22 -59 -7 3 -199 87 -427 187 -228 100 -488 213 -577 252 -90 40 -163 74
-163 77 0 3 26 14 58 24 152 49 366 174 561 325 82 64 259 235 288 280 9 12
16 22 17 22 1 0 2 -75 2 -167z m9419 -208 c36 -122 92 -238 169 -348 118 -169
176 -227 341 -347 216 -156 428 -263 605 -304 141 -32 152 -32 285 -1 115 27
154 44 228 101 l49 37 -78 -119 c-251 -382 -435 -628 -454 -607 -4 4 -20 59
-34 121 -30 128 -54 181 -126 279 -69 91 -174 179 -278 232 -51 26 -279 81
-336 81 -21 0 -98 -14 -170 -31 -153 -35 -271 -88 -407 -179 -50 -34 -93 -59
-96 -57 -2 3 5 36 16 74 109 366 249 1001 252 1141 1 44 1 43 34 -73z m-2243
-297 c21 -37 17 -493 -5 -633 -22 -140 -69 -387 -72 -383 -2 2 -10 65 -19 142
-24 212 -88 469 -144 581 -37 75 -107 169 -165 221 -29 26 -43 44 -32 40 60
-22 141 -17 275 17 74 19 138 35 142 36 4 1 13 -9 20 -21z m10701 -160 l-33
-133 20 -97 c32 -152 43 -180 103 -260 71 -97 181 -176 285 -208 163 -48 454
-111 586 -126 89 -10 192 -15 278 -12 91 2 134 0 130 -7 -3 -5 -18 -28 -33
-50 -41 -61 -66 -128 -99 -264 -40 -160 -49 -237 -50 -391 0 -142 -20 -338
-49 -487 -76 -391 -363 -1006 -573 -1228 -190 -201 -311 -196 -528 24 -144
146 -232 296 -345 586 -128 330 -179 654 -179 1150 0 516 47 801 189 1140 51
122 132 270 183 335 26 33 143 160 147 160 0 0 -14 -60 -32 -132z m2926 57
c477 -212 871 -476 1201 -805 248 -247 396 -450 535 -735 217 -442 316 -924
301 -1460 -13 -493 -88 -890 -266 -1409 -167 -488 -460 -1048 -813 -1556 -318
-458 -595 -787 -1036 -1234 -124 -126 -265 -264 -313 -308 -82 -73 -91 -78
-133 -78 -49 0 -78 20 -95 65 -13 34 2 146 55 410 56 279 68 370 63 448 -8
118 -59 176 -173 196 -232 41 -509 -185 -691 -562 -26 -53 -48 -96 -50 -95 -7
7 39 239 75 385 52 206 58 255 38 287 -24 36 -110 52 -201 38 -126 -19 -173
-82 -230 -312 -38 -152 -62 -306 -72 -460 l-6 -105 -87 -89 c-126 -129 -219
-167 -272 -110 -22 24 -24 33 -23 132 0 114 10 170 94 542 89 391 88 428 -3
455 -92 27 -188 14 -240 -33 -29 -26 -47 -66 -83 -189 -99 -339 -248 -656
-345 -737 -36 -30 -89 -35 -110 -9 -36 43 5 377 91 729 45 186 50 244 21 273
-46 46 -219 50 -283 7 -49 -33 -74 -77 -118 -211 -65 -200 -109 -435 -110
-581 l0 -61 -72 -70 c-113 -109 -198 -143 -304 -124 -120 22 -213 116 -301
301 -110 232 -157 320 -213 395 -71 96 -76 126 -28 180 17 20 54 48 82 62 290
146 466 409 466 695 -1 423 -346 710 -906 753 l-91 7 -17 92 c-47 249 -158
476 -316 649 l-63 68 7 97 c7 104 22 185 79 432 20 86 40 189 43 229 l7 73 67
-134 c178 -356 454 -717 720 -943 111 -94 327 -252 437 -319 234 -142 421
-215 754 -292 156 -36 172 -38 334 -38 188 0 253 10 511 73 308 76 522 169
791 343 l93 60 67 -62 c87 -79 280 -219 358 -257 81 -41 162 -66 340 -107 333
-77 486 -76 823 9 212 53 299 93 461 209 136 98 203 167 302 309 129 186 200
355 265 629 54 230 66 332 61 498 -9 275 -71 434 -212 538 -82 60 -94 66 -221
96 l-111 26 -107 -25 c-58 -14 -110 -25 -114 -25 -15 0 -109 209 -157 350 -25
74 -95 306 -155 515 -184 643 -267 853 -418 1065 -68 95 -117 146 -207 213
-87 65 -151 97 -233 117 l-52 12 77 82 c87 92 198 244 264 359 24 42 49 77 55
77 6 0 57 -20 113 -45z m-26454 -26 c22 -22 83 -73 135 -113 275 -211 445
-289 830 -379 262 -62 332 -71 508 -64 124 4 169 11 284 40 75 19 161 46 190
59 63 29 209 133 257 182 l34 35 84 -79 c96 -91 260 -216 441 -337 70 -47 129
-87 132 -90 3 -3 -17 -3 -45 0 -74 8 -347 -10 -492 -32 -238 -37 -564 -120
-738 -188 -245 -97 -496 -253 -719 -448 -196 -172 -424 -505 -511 -745 -31
-86 -98 -361 -114 -467 -16 -102 -14 -332 4 -439 20 -122 86 -385 117 -460 38
-95 92 -185 187 -312 232 -310 640 -596 1121 -785 344 -135 871 -270 1330
-341 800 -124 1674 -109 2585 44 285 48 498 93 820 175 669 170 1109 361 1494
650 154 115 256 207 321 288 24 31 46 55 48 53 6 -6 -166 -424 -265 -646 -16
-36 -40 -105 -52 -155 l-22 -89 22 -91 c26 -106 70 -173 152 -233 41 -31 73
-43 152 -62 139 -32 254 -25 477 29 320 77 526 179 858 424 285 211 571 499
914 921 l121 149 7 -109 c14 -208 71 -503 135 -699 72 -222 217 -423 398 -554
112 -81 145 -96 307 -137 196 -50 299 -51 487 -5 167 40 207 54 298 98 236
115 567 401 789 683 201 254 393 539 569 843 50 85 93 150 96 144 4 -7 9 -32
13 -57 4 -25 23 -112 42 -195 86 -369 182 -577 398 -865 134 -178 251 -289
461 -432 139 -96 242 -147 375 -188 146 -45 139 -41 110 -50 -289 -87 -776
-222 -1135 -315 -77 -20 -234 -63 -350 -95 -115 -32 -358 -98 -540 -145 -181
-47 -454 -120 -605 -160 -425 -115 -1337 -342 -1660 -414 -749 -168 -921 -203
-1670 -341 -260 -47 -355 -72 -170 -44 172 26 624 99 800 130 80 14 195 34
255 44 61 10 200 37 310 59 110 22 256 51 325 64 114 23 647 140 695 153 118
32 254 64 269 64 10 0 93 18 185 41 91 22 231 56 311 75 80 20 221 56 315 80
93 25 179 47 190 48 11 1 27 5 35 9 27 12 312 78 317 73 2 -2 32 3 66 11 34 8
78 19 97 23 19 5 64 16 100 25 36 9 81 19 100 21 19 2 116 24 215 50 188 49
247 62 305 69 19 3 66 12 103 21 37 9 71 14 74 10 4 -3 -1 -6 -10 -6 -8 0 -28
-5 -44 -12 -15 -7 -32 -13 -38 -14 -5 0 -30 -5 -55 -10 -25 -4 -48 -7 -52 -6
-5 1 -8 -3 -8 -9 0 -7 -10 -9 -26 -5 -14 4 -23 3 -20 -2 2 -4 -51 -23 -120
-41 -69 -19 -144 -44 -168 -57 -24 -13 -90 -35 -147 -50 -57 -14 -112 -30
-121 -35 -10 -5 -30 -11 -45 -14 -15 -2 -44 -8 -63 -14 -83 -24 -110 -31 -200
-55 -52 -15 -122 -35 -155 -45 -110 -34 -364 -110 -490 -147 -49 -14 -119 -35
-155 -46 -77 -23 -181 -50 -420 -111 -96 -25 -233 -61 -305 -82 -71 -20 -138
-39 -150 -40 -11 -2 -76 -17 -145 -34 -69 -17 -168 -40 -220 -51 -52 -11 -142
-31 -200 -45 -58 -14 -132 -30 -165 -36 -33 -5 -114 -23 -180 -39 -179 -43
-545 -114 -850 -166 -148 -25 -322 -54 -387 -65 -150 -25 -404 -63 -638 -94
-102 -13 -216 -29 -255 -35 -62 -9 -127 -17 -270 -35 -62 -8 -487 -54 -605
-66 -58 -5 -132 -14 -165 -19 -33 -5 -96 -12 -140 -15 -44 -3 -91 -8 -105 -10
-29 -6 -553 -49 -780 -65 -361 -26 -858 -35 -1905 -35 -934 0 -1332 10 -2015
50 -331 20 -581 36 -615 39 -44 5 -131 13 -240 21 -249 20 -752 73 -850 90
-125 22 -280 55 -380 81 -33 9 -71 18 -85 21 -36 6 -298 81 -346 99 -23 8 -50
16 -60 18 -26 6 -231 76 -349 120 -73 27 -269 108 -309 127 -22 10 -46 19 -53
19 -21 0 -397 180 -522 250 -70 40 -161 97 -188 120 -7 5 -17 10 -23 10 -6 0
-13 7 -16 15 -3 8 -27 24 -52 37 -26 12 -82 51 -126 86 -44 34 -100 75 -125
89 -41 23 -171 148 -171 164 0 4 -9 9 -21 12 -12 3 -19 10 -16 15 3 4 -4 15
-15 23 -34 23 -132 104 -146 121 -10 13 -10 17 3 22 9 3 18 -1 21 -9 4 -8 11
-15 18 -15 15 0 46 -36 38 -45 -4 -3 1 -3 11 1 9 3 14 11 10 18 -4 6 8 -2 27
-18 19 -16 34 -32 34 -35 -1 -3 26 -28 59 -56 34 -27 57 -43 52 -35 -9 17 -5
13 67 -48 21 -17 44 -29 52 -26 8 3 20 -4 28 -15 8 -12 18 -18 21 -15 4 4 9 0
13 -9 3 -9 41 -40 85 -68 43 -29 79 -56 79 -61 0 -5 12 -14 28 -21 15 -6 57
-31 94 -54 36 -24 71 -43 78 -43 12 0 57 -27 78 -47 6 -6 22 -15 35 -19 12 -4
41 -20 64 -35 38 -27 112 -63 251 -125 28 -12 52 -21 52 -19 0 2 31 -9 69 -25
38 -15 72 -26 75 -22 3 3 6 0 6 -6 0 -7 6 -12 14 -12 8 0 21 -6 28 -13 7 -7
29 -18 48 -24 19 -6 69 -24 110 -39 211 -77 337 -119 500 -168 210 -63 884
-213 913 -203 7 2 -1 7 -18 10 -788 160 -1359 344 -1903 613 -341 169 -646
374 -912 612 -458 410 -744 895 -859 1462 -37 182 -46 296 -45 575 1 221 5
295 22 410 67 438 146 717 286 1010 270 563 734 1042 1434 1479 245 153 453
262 752 391 152 66 555 223 575 224 6 1 29 -17 50 -40z m16929 -154 c-19 -29
-29 -27 -19 4 3 12 13 21 21 21 12 0 12 -4 -2 -25z m-4825 -44 c110 -56 184
-215 221 -474 14 -93 21 -84 -125 -156 -385 -188 -676 -221 -1008 -114 -60 19
-107 38 -105 43 9 25 225 264 332 368 186 179 356 299 481 338 63 20 159 17
204 -5z m6612 -470 c35 -11 103 -31 150 -45 l85 -25 -62 -248 c-172 -685 -277
-1249 -320 -1723 -23 -244 -23 -688 -1 -891 12 -104 14 -168 8 -223 -13 -117
10 -102 -406 -248 -301 -105 -1260 -424 -1484 -494 l-44 -14 50 53 c113 119
386 504 540 762 270 450 472 881 900 1920 303 736 502 1195 517 1195 2 0 32
-9 67 -19z m7150 -167 c138 -40 230 -136 334 -349 64 -130 159 -372 179 -457
6 -27 5 -28 -31 -28 -76 0 -373 40 -556 75 -223 42 -458 101 -579 145 -101 37
-99 32 -68 154 57 225 231 403 450 460 74 20 204 20 271 0z m-15931 -55 c137
-46 439 -166 503 -201 l24 -13 -28 -165 c-46 -273 -69 -358 -102 -394 -60 -64
-80 -152 -28 -119 18 11 17 6 -6 -70 -13 -45 -48 -142 -77 -215 -29 -73 -50
-130 -46 -125 4 4 33 50 64 101 50 79 62 92 85 92 24 0 27 4 28 35 1 20 -3 32
-9 29 -20 -13 173 276 355 532 115 161 93 152 237 100 132 -48 307 -86 455
-98 288 -23 596 41 877 182 44 23 82 40 83 38 6 -6 -15 -387 -30 -557 -24
-267 -97 -817 -122 -918 -3 -13 -1 -23 4 -23 16 0 144 122 218 210 298 351
543 854 680 1395 16 61 31 113 34 117 4 4 49 -22 101 -58 313 -216 661 -390
836 -419 l42 -6 -55 -142 c-177 -462 -407 -966 -625 -1369 -65 -120 -96 -168
-109 -168 -9 0 -19 5 -21 11 -2 6 -21 12 -43 12 -30 2 -39 6 -37 17 2 8 6 39
8 68 4 46 2 55 -18 72 -13 11 -34 19 -47 20 -16 0 -21 4 -18 14 3 8 -2 16 -14
19 -10 3 -19 11 -19 19 0 17 -97 23 -116 7 -7 -6 -17 -8 -23 -5 -5 3 -14 -8
-20 -24 -12 -35 -40 -40 -59 -10 -9 15 -23 20 -55 20 -68 1 -114 16 -141 46
-33 37 -32 45 4 77 25 23 38 27 80 25 36 -2 54 2 60 12 15 24 -5 33 -69 34
-41 1 -65 7 -79 19 -23 21 -68 22 -76 2 -3 -8 -12 -15 -21 -15 -8 0 -15 -9
-15 -19 0 -24 -36 -51 -69 -51 -28 0 -61 26 -61 47 0 17 24 43 39 43 10 0 16
33 12 73 -1 9 3 17 8 17 6 0 11 9 11 19 0 17 -4 18 -36 10 -19 -6 -45 -9 -57
-9 -42 4 -46 0 -52 -54 -8 -60 -8 -60 -100 -79 -12 -2 -21 -13 -23 -28 -4 -41
-22 -99 -31 -99 -4 0 -18 12 -32 26 -13 14 -41 33 -61 41 -21 8 -38 19 -38 23
0 13 24 28 50 32 14 1 25 8 25 13 1 6 7 21 14 33 16 30 7 67 -24 96 -29 27
-32 46 -8 46 14 0 13 4 -7 25 -19 20 -31 24 -71 22 -40 -2 -49 -5 -49 -21 0
-14 -6 -17 -25 -14 -14 3 -28 1 -31 -3 -3 -5 -14 -9 -25 -9 -10 0 -19 -7 -19
-15 0 -9 -9 -15 -25 -15 -16 0 -25 -6 -25 -15 0 -18 -21 -20 -37 -4 -17 17
-113 2 -106 -17 4 -10 -4 -14 -31 -14 -20 0 -36 5 -36 10 0 6 -6 10 -14 10 -8
0 -16 5 -18 10 -3 9 -22 13 -95 19 -7 1 -13 8 -13 16 0 9 -13 18 -31 22 l-31
6 7 51 c19 142 19 143 -16 150 -17 3 -35 3 -40 0 -5 -3 -9 -1 -9 4 0 5 -34 12
-75 16 -57 5 -79 4 -88 -6 -19 -21 -19 -39 1 -62 28 -32 21 -49 -25 -70 -43
-19 -53 -37 -53 -92 0 -29 -24 -54 -38 -39 -3 2 8 83 23 180 24 149 30 173 43
163 8 -7 18 -23 23 -36 12 -30 41 -25 45 8 6 56 6 109 -1 119 -8 13 -46 5 -57
-13 -5 -7 -8 -3 -8 8 0 14 -10 5 -35 -29 -27 -39 -36 -45 -41 -32 -8 21 -30
22 -50 3 -17 -17 -18 -49 -4 -77 8 -15 6 -26 -12 -52 -23 -33 -58 -40 -58 -11
0 8 -5 14 -11 14 -5 0 -7 5 -4 11 11 17 -4 59 -21 59 -8 0 -12 5 -9 10 7 11
-35 13 -50 2 -5 -4 -15 -16 -21 -26 -11 -21 -22 -28 -69 -46 -18 -6 -36 -24
-45 -43 -11 -22 -25 -34 -49 -40 -36 -9 -76 -32 -76 -45 -2 -20 -17 -52 -26
-52 -5 0 -30 -21 -55 -46 -44 -44 -45 -46 -28 -65 9 -10 29 -19 43 -19 14 -1
35 -6 46 -13 19 -11 21 -19 17 -53 -1 -6 -22 -19 -47 -29 -37 -14 -49 -24 -62
-56 -9 -24 -22 -39 -32 -39 -10 0 -23 -11 -29 -25 -6 -14 -16 -25 -21 -25 -6
0 -24 -20 -41 -45 -25 -36 -29 -49 -20 -60 9 -11 6 -13 -17 -10 -55 6 -95 -33
-104 -103 -6 -51 8 -67 51 -59 16 4 32 2 35 -3 8 -13 55 -13 55 0 0 6 5 10 12
10 7 0 22 12 35 26 12 14 28 26 35 28 7 1 20 6 28 11 8 5 -10 -23 -40 -62 -30
-39 -59 -68 -64 -65 -5 3 -6 1 -3 -5 6 -10 -156 -218 -328 -420 -398 -464
-722 -740 -1070 -909 -214 -104 -413 -157 -575 -153 l-69 2 26 56 c68 153 211
503 291 717 395 1049 618 1999 639 2728 l6 209 66 30 c92 43 191 65 297 66 84
1 103 -3 244 -50z m5660 9 c114 -56 185 -146 216 -271 15 -60 16 -79 4 -167
-15 -114 -9 -176 22 -233 42 -75 136 -117 260 -117 199 0 385 153 662 544 l95
134 198 -73 c375 -138 804 -311 823 -332 8 -7 -208 -544 -397 -988 -253 -594
-471 -1021 -699 -1368 -244 -370 -453 -608 -645 -730 -31 -20 -59 -33 -63 -30
-3 4 -6 1 -6 -6 0 -8 -5 -9 -17 -2 -9 5 -26 5 -38 1 -19 -7 -65 -11 -137 -11
-10 0 -18 -4 -18 -10 0 -8 -75 -4 -91 6 -4 3 -20 0 -35 -5 -21 -8 -31 -7 -45
6 -24 21 -24 34 -1 34 15 1 15 2 -3 13 -23 14 -31 37 -13 37 6 0 -1 14 -17 30
-16 17 -36 30 -45 30 -20 0 -70 51 -70 71 0 22 -41 55 -68 57 -26 1 -40 -25
-51 -98 -5 -32 -11 -45 -22 -44 -14 1 -44 -52 -63 -109 -11 -35 -24 -6 -25 53
0 49 3 62 20 70 22 12 24 35 5 69 -9 17 -15 20 -21 11 -5 -8 -20 0 -49 29 -33
33 -52 43 -87 47 -71 8 -102 63 -36 64 10 0 15 5 12 10 -4 6 -15 8 -25 5 -25
-8 -34 10 -15 29 8 8 11 17 6 20 -4 3 -7 17 -6 31 2 14 -2 25 -8 25 -8 0 -8 3
1 8 19 12 -42 69 -81 75 -22 3 -45 -2 -74 -18 -24 -13 -45 -19 -48 -14 -4 5
-17 9 -30 9 -37 0 -57 52 -37 95 33 69 31 105 -14 194 -19 37 -37 82 -40 100
-8 38 -20 47 -39 31 -18 -15 -45 3 -45 29 0 38 -46 54 -70 26 -7 -8 -14 -32
-15 -53 -4 -52 -37 -142 -63 -174 -8 -9 -21 -14 -29 -11 -8 3 -18 2 -22 -3
-27 -38 -103 -35 -109 4 -2 12 -8 22 -13 22 -10 0 -1 49 13 66 5 7 11 27 13
45 12 80 24 173 23 179 -4 39 4 60 25 65 21 6 23 12 26 83 1 42 7 80 13 83 21
13 -16 19 -64 10 -11 -2 -58 -51 -58 -60 0 -5 -24 -32 -54 -61 -30 -29 -60
-67 -67 -84 -7 -17 -20 -41 -29 -53 -17 -21 -17 -20 -34 47 -44 185 -63 438
-46 635 21 255 76 486 179 747 240 610 579 1005 996 1160 77 28 212 22 285
-14z m-6674 -290 c-14 -359 -82 -835 -172 -1193 -42 -172 -127 -475 -131 -472
-2 2 -10 42 -17 88 -35 215 -114 467 -184 589 -92 160 -219 327 -354 466
l-109 112 83 12 c132 19 345 76 422 113 39 19 117 69 173 111 80 60 116 96
171 168 38 51 80 112 93 135 13 24 26 43 28 43 2 0 1 -78 -3 -172z m-2325 26
c336 -177 693 -402 904 -570 149 -118 384 -357 467 -474 243 -343 312 -726
187 -1040 -55 -137 -138 -257 -266 -386 -80 -80 -281 -236 -294 -228 -4 2 -9
-2 -12 -9 -3 -6 -19 -21 -37 -31 -18 -10 -30 -14 -26 -8 5 8 2 10 -8 6 -9 -3
-14 -9 -11 -13 7 -13 -176 -6 -223 8 -24 6 -53 22 -64 33 -21 21 -21 22 -2 29
17 7 16 8 -6 8 -20 1 -22 3 -10 11 24 15 -21 54 -62 54 -32 1 -33 2 -32 41 1
37 3 40 32 43 31 3 50 28 34 44 -5 5 -33 5 -65 0 -56 -9 -58 -8 -92 25 -18 18
-39 33 -45 33 -5 0 -10 6 -10 13 0 7 -13 26 -30 42 -29 28 -29 28 -10 45 11
10 20 22 20 27 0 13 -54 63 -69 63 -7 0 -10 4 -7 9 3 4 -6 6 -19 3 -14 -2 -25
-11 -25 -20 0 -12 -6 -10 -25 8 -14 13 -25 19 -25 13 0 -23 -58 3 -107 48 -56
53 -73 60 -73 29 0 -13 -7 -20 -20 -20 -11 0 -20 -4 -20 -10 0 -14 -42 -12
-62 4 -10 7 -18 18 -18 24 0 16 -81 92 -98 92 -8 0 -10 5 -6 13 6 9 4 9 -7 1
-8 -6 -21 -11 -29 -12 -8 0 -29 -3 -46 -7 -22 -5 -35 -2 -47 9 -8 9 -20 16
-25 16 -5 0 -9 7 -9 15 0 10 10 15 28 15 15 0 30 4 33 8 3 5 -53 66 -125 138
-71 71 -129 123 -129 116 0 -6 -11 -12 -25 -12 -30 0 -30 -3 -6 68 11 31 23
84 26 117 32 286 -262 626 -993 1147 -70 50 -118 88 -107 85 76 -23 344 -82
465 -102 403 -68 698 -4 900 195 82 80 135 169 161 269 7 28 16 51 19 51 3 0
71 -34 151 -76z m-3524 -19 c421 -55 777 -227 1091 -529 84 -80 220 -242 267
-316 66 -105 84 -261 44 -383 -18 -54 -26 -67 -55 -81 -19 -9 -40 -21 -47 -26
-53 -43 -77 -60 -112 -78 -22 -11 -56 -36 -74 -56 -19 -20 -41 -36 -48 -36 -8
0 -16 -7 -19 -15 -5 -13 -33 -36 -137 -112 -16 -12 -38 -35 -48 -52 -11 -18
-27 -31 -38 -31 -11 0 -23 -5 -26 -11 -4 -6 -14 -8 -22 -5 -9 4 -20 -6 -31
-26 -35 -66 -174 -183 -209 -176 -30 6 -23 40 14 74 45 41 66 61 102 102 24
26 37 32 71 32 28 0 40 4 38 13 -2 6 7 23 18 36 12 13 34 39 50 58 16 18 39
43 52 55 12 12 22 27 22 34 0 7 20 30 45 52 25 22 45 44 45 50 0 5 12 18 27
27 34 23 93 81 94 95 3 19 5 25 22 58 10 17 15 32 12 32 -4 0 0 7 9 15 8 8 19
15 24 15 9 0 102 49 102 54 0 2 -19 3 -41 4 -29 1 -47 9 -61 24 -16 19 -22 20
-39 10 -11 -7 -24 -10 -29 -7 -10 6 -60 -15 -75 -31 -17 -19 -56 -24 -62 -8
-3 7 -24 19 -47 26 -22 6 -47 18 -53 27 -12 13 -13 13 -13 -2 0 -9 -7 -17 -16
-17 -12 0 -15 7 -12 31 5 30 4 31 -29 24 -47 -9 -103 32 -103 76 0 16 -5 29
-11 29 -6 0 -1 9 12 21 17 14 20 22 12 25 -7 3 -13 12 -13 20 0 8 -5 14 -10
14 -6 0 -30 9 -52 20 -59 28 -88 27 -88 -5 0 -14 5 -25 10 -25 6 0 10 -6 10
-14 0 -8 19 -20 44 -27 27 -8 47 -20 49 -31 3 -10 1 -18 -4 -18 -5 0 -9 -9 -9
-20 0 -11 -6 -20 -14 -20 -8 0 -22 -7 -31 -16 -9 -9 -28 -16 -42 -16 -25 0
-53 -18 -53 -33 0 -3 -12 -19 -27 -34 -24 -24 -34 -28 -70 -24 -40 5 -43 7
-43 34 0 16 5 29 10 29 6 0 10 7 10 15 0 8 -6 15 -13 15 -9 0 -12 9 -9 30 3
18 -2 35 -12 45 -9 9 -16 11 -16 5 0 -6 -6 -10 -12 -9 -7 1 -28 1 -45 0 -28
-1 -33 -5 -33 -26 0 -18 -5 -25 -19 -25 -11 0 -21 -5 -23 -11 -2 -6 -16 7 -32
28 l-28 38 6 -43 c6 -41 6 -42 -19 -36 -19 5 -25 2 -25 -10 0 -9 7 -16 15 -16
11 0 15 -12 15 -45 0 -33 -4 -45 -15 -45 -8 0 -15 -7 -15 -16 0 -14 12 -16 92
-12 58 3 93 9 96 16 2 7 17 12 32 12 16 0 32 5 35 10 3 6 11 10 17 10 7 0 6
-6 -2 -15 -11 -13 -8 -15 14 -15 37 0 42 -22 16 -68 l-22 -39 -31 15 c-17 8
-49 16 -71 17 -82 4 -86 4 -80 20 4 10 0 15 -12 16 -81 6 -94 5 -94 -7 0 -10
-14 -14 -45 -14 -33 0 -45 4 -45 15 0 8 -5 15 -11 15 -6 0 -9 7 -5 15 3 9 0
15 -8 15 -8 0 -21 3 -30 6 -11 4 -16 0 -16 -14 0 -28 -43 -37 -70 -15 -25 21
-26 53 -2 54 11 1 9 4 -8 9 -22 7 -23 8 -4 9 33 2 62 34 73 81 10 44 23 60 53
60 9 0 19 4 22 8 5 9 -38 12 -161 12 -58 1 -73 4 -73 15 0 8 -4 15 -10 15 -5
0 -7 -6 -4 -14 3 -8 -3 -16 -15 -19 -17 -4 -20 -10 -15 -36 6 -27 4 -31 -15
-31 -12 0 -38 7 -59 16 -37 15 -37 15 -59 -13 -13 -15 -23 -31 -23 -35 0 -5
-7 -8 -15 -8 -8 0 -15 5 -15 10 0 6 -7 10 -15 10 -8 0 -24 9 -35 20 -21 21
-22 71 -1 123 15 38 17 35 -34 57 -43 18 -45 21 -45 60 0 25 5 40 13 40 9 0 9
2 0 8 -6 4 -14 24 -18 45 -8 41 -33 55 -80 43 -15 -4 -25 -2 -25 4 0 6 -5 8
-12 4 -12 -8 -34 -13 -70 -16 -24 -3 -23 -23 3 -49 22 -22 21 -37 -4 -53 -12
-8 -22 -7 -37 2 -30 18 -38 15 -45 -20 -4 -18 -11 -35 -15 -38 -5 -3 4 -39 18
-80 23 -67 26 -91 27 -215 0 -141 -15 -244 -52 -354 -48 -145 -173 -341 -251
-395 -56 -38 -195 -86 -252 -86 -91 1 -176 66 -227 175 -27 59 -28 64 -27 235
0 155 3 186 26 271 54 199 134 348 247 459 l66 65 -173 2 c-146 1 -173 -1
-168 -13 4 -10 -2 -14 -18 -14 -13 0 -26 6 -29 14 -4 9 -18 14 -36 14 -20 -1
-28 -5 -24 -14 3 -8 9 -14 14 -14 5 0 9 -11 9 -24 0 -18 -7 -26 -27 -30 -41
-9 -227 2 -231 14 -4 12 -62 13 -62 1 0 -4 -22 -13 -50 -18 l-49 -10 32 45
c184 257 487 483 834 621 195 78 484 146 713 170 144 14 439 12 567 -4z
m17243 -247 c0 -35 -21 -290 -26 -315 -7 -38 -24 -26 -24 17 0 31 -4 40 -17
40 -15 0 -18 -8 -15 -55 3 -49 6 -54 25 -52 17 2 23 -4 25 -26 2 -15 0 -27 -5
-26 -27 5 -43 -3 -43 -21 0 -11 5 -20 10 -20 6 0 10 -9 10 -20 0 -11 -5 -20
-11 -20 -18 0 -41 -30 -35 -45 3 -9 18 -15 35 -15 29 0 30 2 33 53 2 28 4 -8
3 -82 0 -73 -1 -126 -3 -118 -3 13 -8 14 -27 5 -33 -15 -52 -5 -70 38 -16 40
-50 74 -72 74 -7 0 -13 5 -13 11 0 5 -4 7 -10 4 -5 -3 -10 3 -10 14 0 12 3 20
8 19 18 -4 90 24 95 37 4 9 1 12 -7 9 -9 -4 -13 3 -13 21 0 19 3 23 12 15 9
-8 11 -4 7 16 -2 14 -11 28 -19 31 -10 4 -12 16 -8 47 4 22 7 48 8 56 2 8 7
22 12 30 26 41 37 68 41 105 4 29 13 47 35 66 23 19 30 32 29 55 -4 61 -1 74
20 74 14 0 20 -7 20 -22z m-400 5 c0 -5 -14 -35 -30 -68 -16 -33 -30 -67 -30
-76 0 -9 -8 -27 -19 -40 -10 -13 -26 -45 -34 -70 -9 -25 -31 -77 -51 -115 -34
-69 -34 -70 -41 -244 -8 -235 -22 -432 -40 -565 -16 -117 -55 -277 -80 -324
-20 -41 -70 -79 -110 -87 l-35 -6 -2 -62 c-1 -33 -1 -74 0 -89 2 -31 -6 -62
-67 -240 -23 -65 -41 -127 -41 -137 0 -28 36 -45 66 -31 18 8 31 7 50 -1 23
-11 28 -9 52 17 24 26 83 50 69 28 -3 -4 11 -8 31 -7 48 1 54 2 75 18 35 26
-19 86 -77 86 -15 0 -17 -3 -9 -11 9 -9 8 -15 -2 -25 -22 -22 -52 -17 -59 10
-7 29 1 56 18 56 19 0 43 80 42 140 -1 43 3 59 18 73 11 10 26 15 34 12 7 -3
22 -5 31 -5 10 0 31 -11 47 -25 16 -14 37 -25 46 -25 31 0 68 -23 68 -42 0
-10 -9 -26 -20 -35 -19 -17 -19 -17 3 -41 12 -13 18 -23 12 -22 -25 5 -56 -1
-50 -10 4 -6 11 -8 16 -4 5 3 8 0 7 -6 -2 -7 7 -14 20 -16 23 -4 31 10 10 20
-7 3 -1 4 15 1 15 -3 27 -1 27 4 0 6 17 13 38 16 20 3 45 11 56 16 15 9 23 6
39 -10 23 -23 18 -38 -8 -23 -9 5 -28 7 -42 4 l-24 -5 28 -30 c15 -16 21 -26
13 -22 -13 8 -13 6 -2 -7 14 -17 15 -17 -110 -34 -40 -5 -48 -4 -48 10 0 11
-9 16 -27 16 -33 0 -48 -10 -48 -30 0 -9 -7 -14 -17 -12 -20 3 -22 -6 -9 -27
5 -8 16 -11 26 -8 11 5 14 3 9 -5 -5 -7 -2 -9 8 -5 9 3 18 3 21 0 3 -2 54 -6
114 -8 110 -4 214 -11 268 -19 17 -3 66 -10 110 -16 44 -6 107 -19 140 -29 33
-10 85 -24 115 -30 30 -7 75 -22 99 -32 24 -11 45 -18 48 -15 10 10 203 -100
283 -161 7 -6 2 -85 -7 -94 -12 -11 -260 43 -388 84 -60 20 -139 43 -175 52
-36 9 -130 36 -210 59 -252 75 -287 81 -515 85 -103 2 -136 6 -160 20 -28 16
-32 17 -58 0 -16 -9 -48 -16 -73 -16 -29 0 -65 -9 -105 -28 -58 -28 -61 -29
-122 -16 -72 15 -81 21 -138 104 -40 59 -43 66 -52 167 -12 134 -2 517 18 730
29 301 92 695 168 1052 13 59 26 110 29 114 6 6 205 57 264 67 28 5 31 4 27
-14 -4 -14 3 -29 21 -45 31 -29 31 -31 8 -69 -21 -34 -36 -95 -23 -95 18 0 41
39 46 77 3 23 1 68 -3 100 l-8 60 56 11 c30 7 83 15 118 18 60 7 74 1 53 -21
-12 -13 -71 -190 -71 -214 0 -22 35 -55 49 -47 5 3 16 37 25 74 8 37 24 85 36
107 11 21 20 48 20 58 0 43 18 57 75 57 30 0 55 -3 55 -7z m2280 -493 c0 -5
-7 -7 -15 -4 -8 4 -15 8 -15 10 0 2 7 4 15 4 8 0 15 -4 15 -10z m-20660 -64
c0 -23 -3 -24 -40 -21 -47 4 -60 11 -60 31 0 10 13 14 50 14 46 0 50 -2 50
-24z m3429 -63 c280 -213 545 -463 611 -577 30 -54 32 -61 21 -96 -37 -124
-284 -273 -511 -307 -66 -10 -141 -13 -245 -10 -134 4 -157 8 -217 32 -38 15
-68 30 -68 33 0 3 27 30 60 60 64 57 177 210 204 277 9 21 30 95 46 163 39
163 39 249 1 400 -16 61 -26 112 -23 112 3 0 58 -39 121 -87z m5367 57 c0 -11
-6 -20 -13 -20 -11 0 -11 5 -3 20 6 11 12 20 13 20 2 0 3 -9 3 -20z m15068
-12 c3 -17 2 -36 -3 -41 -16 -16 -31 3 -31 39 0 44 25 46 34 2z m-23078 -13
c-3 -8 -1 -15 3 -15 5 0 11 5 13 12 5 14 68 -43 68 -61 0 -19 -62 -19 -97 0
-22 12 -25 31 -10 56 5 7 -1 13 -15 16 -16 3 -13 5 11 6 26 1 32 -2 27 -14z
m-1316 -50 c0 -8 -9 -15 -20 -15 -11 0 -20 7 -20 15 0 8 9 15 20 15 11 0 20
-7 20 -15z m21004 -16 c51 -40 84 -129 152 -406 67 -277 129 -491 188 -653 44
-123 104 -261 120 -280 43 -50 38 -141 -11 -179 -53 -42 -148 -14 -173 52 -46
116 -137 321 -170 381 -111 204 -196 488 -265 882 -24 140 11 224 95 224 23 0
48 -8 64 -21z m3583 -121 c-2 -13 -4 -5 -4 17 -1 22 1 32 4 23 2 -10 2 -28 0
-40z m-5440 10 c25 -28 17 -68 -15 -83 -12 -5 -22 -13 -22 -17 0 -5 -16 -8
-35 -8 -32 0 -35 2 -35 30 0 22 5 30 18 30 12 0 14 2 4 8 -10 7 -8 15 8 35 26
33 50 34 77 5z m-17855 -43 c-6 -50 -15 -49 -25 3 -6 28 -4 33 11 30 12 -2 16
-11 14 -33z m363 -85 c0 -18 -6 -26 -22 -28 -18 -3 -23 1 -23 21 0 28 9 39 30
35 9 -2 15 -14 15 -28z m-202 13 c-7 -2 -19 -2 -25 0 -7 3 -2 5 12 5 14 0 19
-2 13 -5z m1344 -9 c-3 -3 -12 -4 -19 -1 -8 3 -5 6 6 6 11 1 17 -2 13 -5z
m16490 -36 c-3 -8 -6 -5 -6 6 -1 11 2 17 5 13 3 -3 4 -12 1 -19z m-16487 2 c0
-5 -5 -10 -11 -10 -14 0 -7 -43 10 -56 16 -13 6 -54 -14 -54 -7 0 -16 -6 -18
-12 -4 -10 -8 -10 -15 1 -6 8 -18 11 -30 7 -11 -4 -23 -2 -27 4 -3 5 1 10 11
10 11 0 15 6 11 19 -6 24 10 51 30 51 13 0 14 3 6 11 -6 6 -9 18 -6 25 6 16
53 19 53 4z m144 -16 c21 -8 20 -20 0 -28 -19 -7 -47 12 -38 25 6 11 16 11 38
3z m16316 -8 c0 -22 -11 -46 -22 -46 -5 0 -16 6 -24 14 -12 13 -12 17 2 30 19
20 44 21 44 2z m-17684 -11 c-8 -8 -23 -14 -33 -14 -17 1 -17 2 0 6 9 2 15 9
12 14 -4 5 3 9 15 9 19 0 20 -2 6 -15z m137 -74 c-3 -12 -11 -17 -19 -14 -21
8 -17 33 5 33 14 0 18 -5 14 -19z m1317 5 c0 -18 -16 -29 -30 -21 -13 8 -1 35
16 35 8 0 14 -6 14 -14z m6825 -6 c7 -21 55 -29 55 -10 0 6 7 10 15 10 21 0
19 -5 -15 -56 -34 -48 -49 -55 -57 -25 -3 11 -18 24 -34 30 -33 11 -32 11 -19
45 12 31 46 35 55 6z m-6995 -10 c0 -5 -7 -10 -15 -10 -8 0 -15 5 -15 10 0 6
7 10 15 10 8 0 15 -4 15 -10z m-167 -74 c5 -12 -7 -14 -59 -14 -54 0 -63 3
-53 14 16 19 105 19 112 0z m7081 -15 c-2 -2 8 -17 23 -33 22 -23 29 -25 41
-15 9 6 -28 -49 -82 -123 -90 -125 -124 -159 -147 -145 -5 4 -6 -1 -3 -10 4
-9 13 -14 20 -11 8 3 -3 -17 -23 -45 -21 -27 -39 -44 -42 -37 -2 7 -10 27 -18
45 -8 18 -12 37 -8 44 4 6 2 15 -5 19 -7 5 -9 16 -5 29 7 22 7 22 27 4 15 -13
22 -15 25 -5 3 6 11 12 19 12 8 0 14 6 14 14 0 18 78 94 105 102 61 19 75 81
25 111 -16 9 -30 23 -30 30 0 7 -6 13 -12 13 -8 1 -6 6 5 14 14 11 24 11 47 3
16 -6 27 -13 24 -16z m14932 -16 c79 -52 149 -261 189 -564 17 -132 19 -315 4
-381 -22 -98 -92 -159 -166 -145 -25 4 -54 26 -102 74 -67 66 -69 70 -109 192
-48 145 -57 193 -76 434 -19 240 -13 271 63 353 57 61 137 77 197 37z m-22066
-10 c0 -8 -4 -15 -10 -15 -5 0 -10 7 -10 15 0 8 5 15 10 15 6 0 10 -7 10 -15z
m7600 -25 c0 -5 -9 -10 -21 -10 -11 0 -17 5 -14 10 3 6 13 10 21 10 8 0 14 -4
14 -10z m0 -35 c0 -8 5 -24 12 -35 16 -25 5 -35 -21 -18 -25 15 -30 68 -6 68
8 0 15 -7 15 -15z m340 -50 c0 -8 5 -15 10 -15 6 0 10 -8 10 -19 0 -40 -102
-53 -117 -15 -3 8 0 26 7 40 11 19 21 24 52 24 27 0 38 -4 38 -15z m-10725
-30 c0 -6 -33 -11 -75 -12 l-75 -2 40 14 c45 15 110 15 110 0z m-183 -49 c-9
-18 -11 -16 -11 19 0 33 1 37 10 21 8 -12 8 -25 1 -40z m10628 39 c0 -8 -6
-15 -14 -15 -8 0 -16 7 -20 15 -4 10 1 15 14 15 11 0 20 -7 20 -15z m8480
-130 c7 -8 8 -15 2 -15 -5 0 -15 7 -22 15 -7 8 -8 15 -2 15 5 0 15 -7 22 -15z
m382 -74 c2 -17 1 -28 -4 -25 -8 5 -12 54 -4 54 2 0 6 -13 8 -29z m-249 -9 c5
-1 5 -7 2 -12 -3 -6 7 -31 24 -56 32 -46 39 -74 20 -74 -5 0 -7 -4 -4 -10 4
-6 -7 -11 -24 -11 -17 -1 -37 -2 -43 -3 -30 -3 -61 56 -52 97 4 18 8 41 10 52
1 11 3 20 3 21 1 1 53 -2 64 -4z m-7803 -42 c0 -5 -2 -10 -4 -10 -3 0 -8 5
-11 10 -3 6 -1 10 4 10 6 0 11 -4 11 -10z m-6216 -74 c-5 -12 -9 -13 -24 -3
-18 11 -18 13 -3 30 14 15 18 16 25 3 4 -8 5 -21 2 -30z m246 17 c0 -5 -13 -8
-30 -9 -16 -1 -27 3 -24 7 6 11 54 12 54 2z m4323 0 c-7 -2 -19 -2 -25 0 -7 3
-2 5 12 5 14 0 19 -2 13 -5z m16947 -82 c0 -17 -11 -43 -26 -61 -15 -17 -30
-45 -33 -62 -4 -17 -11 -33 -16 -35 -12 -3 -11 93 0 120 4 10 2 24 -6 33 -17
20 2 34 49 34 29 0 32 -3 32 -29z m-23872 -57 c-6 -13 -15 -24 -19 -24 -4 0
-14 -3 -23 -6 -24 -9 -20 32 5 57 16 16 23 18 34 9 11 -9 11 -17 3 -36z m9665
19 c13 -12 -15 -33 -44 -33 -35 0 -40 26 -6 33 37 7 43 7 50 0z m6718 -36 c-5
-5 -22 -7 -36 -3 -26 7 -27 8 -9 27 16 18 18 18 36 2 12 -10 15 -20 9 -26z
m-144 -13 c-3 -3 -12 -4 -19 -1 -8 3 -5 6 6 6 11 1 17 -2 13 -5z m-17898 -256
c32 -32 61 -100 87 -197 21 -80 18 -106 -15 -143 -43 -49 -88 -45 -146 12 -55
54 -85 127 -92 227 -6 70 -5 73 25 102 43 44 98 43 141 -1z m18350 8 c10 -12
8 -13 -8 -9 -12 3 -21 9 -21 14 0 14 16 11 29 -5z m-13389 -38 c0 -4 11 -18
25 -32 36 -36 31 -45 -6 -10 -26 23 -29 25 -20 7 17 -33 14 -40 -19 -52 -16
-5 -30 -15 -30 -20 0 -22 -66 -12 -90 14 l-23 25 31 0 c33 0 47 13 47 45 0 16
6 20 33 18 l34 -1 -24 25 -23 25 32 -19 c18 -10 33 -21 33 -25z m18121 -129
c-11 -24 -20 -39 -20 -32 -1 14 31 84 36 79 2 -2 -5 -23 -16 -47z m-17987
-175 c23 -9 19 -21 -8 -26 -24 -5 -46 7 -46 24 0 9 32 11 54 2z m-144 -68 c0
-21 -49 -56 -78 -56 -25 0 -62 25 -62 42 0 4 12 8 28 9 15 0 36 4 47 9 32 14
65 12 65 -4z m338 -18 c20 -20 13 -35 -18 -36 -26 -1 -29 3 -28 24 3 26 26 32
46 12z m18859 -103 c46 -32 244 -290 288 -375 39 -76 1 -150 -79 -150 -136 0
-366 264 -366 421 0 45 21 93 47 108 26 15 86 13 110 -4z m-14852 -35 c40 -41
39 -44 -17 -53 -15 -2 -25 0 -22 5 3 5 1 14 -4 21 -5 7 -12 24 -16 40 -9 39
12 35 59 -13z m273 2 c2 -7 -3 -12 -12 -12 -9 0 -16 7 -16 16 0 17 22 14 28
-4z m8217 -72 c24 -16 50 -30 58 -30 9 0 43 -7 76 -16 90 -23 102 -25 148 -25
26 0 52 -8 66 -20 14 -10 27 -16 30 -12 4 3 12 1 19 -4 7 -6 27 -14 45 -17 17
-4 43 -18 56 -30 16 -15 35 -22 51 -21 18 2 31 -4 41 -18 8 -12 15 -18 15 -13
0 5 14 -10 31 -34 l31 -42 19 21 c27 29 41 26 60 -12 13 -26 24 -33 59 -39 44
-8 63 -23 55 -45 -2 -6 0 -13 5 -15 4 -2 6 -15 3 -31 -11 -58 -251 -202 -413
-247 -104 -30 -271 -37 -377 -17 -153 29 -273 91 -390 201 -91 86 -202 245
-179 258 8 4 20 25 27 46 13 43 54 81 86 82 12 0 24 4 28 9 8 14 66 42 75 36
4 -2 24 4 45 15 22 11 48 17 61 14 15 -4 29 1 43 15 30 30 74 27 126 -9z
m3347 13 c38 -22 138 -158 138 -187 0 -60 -60 -88 -121 -57 -60 32 -162 109
-176 134 -36 64 5 127 83 127 26 0 59 -8 76 -17z m-3864 -15 c18 -18 15 -43
-10 -80 -33 -47 -64 -41 -78 15 -6 23 -13 47 -15 54 -4 11 11 15 76 21 8 1 20
-3 27 -10z m-7758 -47 c5 -11 7 -27 4 -36 -7 -18 -40 -15 -36 3 1 7 -2 12 -8
12 -5 0 -10 9 -10 20 0 26 36 27 50 1z m-190 -73 c0 -17 63 -68 93 -75 15 -3
26 -11 24 -17 -2 -6 0 -19 4 -28 7 -12 3 -21 -11 -31 -11 -7 -17 -16 -15 -19
3 -3 -1 -8 -9 -11 -16 -7 -48 41 -90 137 -31 69 -30 67 -11 60 8 -4 15 -11 15
-16z m175 -16 c-9 -9 -35 8 -35 24 0 16 2 16 20 -1 11 -10 18 -20 15 -23z
m9245 -205 c0 -2 -15 -16 -32 -33 l-33 -29 29 33 c28 30 36 37 36 29z m1680
-747 c95 -37 166 -88 249 -177 88 -93 113 -133 151 -233 36 -94 35 -217 -3
-317 -14 -39 -29 -84 -31 -100 -8 -45 -54 -131 -76 -143 -26 -14 -26 -10 10
85 25 63 32 102 37 185 8 159 -20 273 -99 390 -40 61 -243 251 -299 280 -16 9
-36 26 -45 39 -16 23 -16 23 17 18 19 -3 59 -15 89 -27z m-24964 -15 c9 -8 12
-15 7 -15 -4 0 -3 -4 3 -8 6 -4 16 -16 23 -27 11 -18 11 -18 5 5 -6 22 -5 23
9 11 9 -7 14 -18 11 -23 -3 -5 2 -16 12 -24 17 -14 16 -14 -16 -8 -38 7 -74
46 -76 81 -1 27 2 28 22 8z m24051 -272 c-4 -95 -11 -164 -21 -192 -15 -41
-96 -445 -187 -926 -144 -770 -168 -888 -209 -1009 -84 -254 -238 -454 -420
-545 -103 -51 -192 -67 -298 -54 -275 35 -491 299 -546 668 -14 89 -14 89 -17
35 -7 -144 24 -270 98 -412 62 -117 124 -192 245 -293 l100 -84 79 -7 c81 -7
99 -17 53 -28 -58 -15 -166 5 -249 44 -143 69 -250 189 -331 372 -77 173 -88
233 -88 463 1 226 8 287 64 535 44 196 93 355 139 447 17 34 31 64 31 67 0 15
81 170 125 238 40 62 56 79 80 84 31 6 57 35 97 111 13 26 35 49 54 58 18 8
36 24 39 35 4 11 15 20 26 20 14 0 18 4 13 13 -5 8 -2 8 9 -2 22 -18 21 -26
-5 -51 -12 -11 -18 -20 -14 -20 4 0 -2 -15 -14 -34 -14 -23 -17 -37 -10 -41 7
-4 52 37 107 94 316 336 630 503 1047 560 5 0 7 -61 3 -146z m2248 -966 c4
-14 -6 -55 -24 -102 -44 -114 -68 -205 -106 -410 -19 -99 -39 -202 -46 -230
-11 -45 -15 -85 -19 -195 -2 -28 -5 -22 -15 30 -21 110 -25 346 -6 440 5 25
15 74 22 110 27 145 76 289 119 350 27 37 67 41 75 7z m711 -42 c8 -19 -6 -71
-40 -152 -15 -34 -37 -108 -51 -165 -13 -57 -30 -130 -38 -163 -8 -33 -27
-126 -42 -207 -15 -82 -31 -148 -36 -148 -8 0 -13 54 -10 100 15 235 25 319
55 461 19 91 42 181 51 200 37 72 97 112 111 74z m708 -112 c-4 -16 -11 -33
-16 -40 -24 -30 -87 -319 -122 -558 -31 -212 -48 -253 -76 -184 -16 38 -8 176
20 314 59 300 72 342 134 438 40 62 71 77 60 30z m729 -115 c43 -33 48 -234
13 -482 -34 -233 -34 -338 0 -431 32 -91 33 -99 9 -103 -28 -4 -78 47 -94 95
-19 56 -25 269 -12 386 6 56 14 131 16 167 3 36 10 92 15 125 5 33 10 101 11
150 4 114 6 119 42 93z m-3588 -35 c59 -37 104 -88 177 -199 119 -182 137
-209 175 -264 21 -30 73 -91 115 -136 74 -77 94 -113 66 -115 -110 -10 -237
125 -451 481 -38 63 -88 140 -111 170 -24 30 -48 65 -55 78 -11 21 -11 22 16
16 15 -3 46 -18 68 -31z"/>
<path d="M25138 22185 c-330 -81 -783 -523 -1243 -1213 -84 -127 -88 -133 -69
-147 37 -28 738 -510 742 -510 2 0 43 113 92 250 189 539 361 962 571 1408 50
106 93 197 95 203 11 25 -98 30 -188 9z"/>
<path d="M8705 22086 c-223 -72 -457 -257 -560 -441 -55 -98 -59 -88 58 -134
132 -52 247 -79 362 -87 250 -17 420 64 506 242 31 64 34 76 34 169 0 84 -4
106 -22 140 -28 52 -78 100 -125 119 -55 23 -168 20 -253 -8z"/>
<path d="M2640 14780 c0 -5 5 -10 11 -10 5 0 7 5 4 10 -3 6 -8 10 -11 10 -2 0
-4 -4 -4 -10z"/>
<path d="M13750 13720 c-50 -11 1 -11 60 -1 41 8 42 8 10 8 -19 0 -51 -3 -70
-7z"/>
<path d="M13588 13693 c6 -2 18 -2 25 0 6 3 1 5 -13 5 -14 0 -19 -2 -12 -5z"/>
<path d="M14728 19363 c6 -2 18 -2 25 0 6 3 1 5 -13 5 -14 0 -19 -2 -12 -5z"/>
<path d="M15188 18489 c-24 -13 -39 -44 -32 -63 11 -28 37 -28 61 0 26 30 28
45 11 62 -14 14 -18 14 -40 1z"/>
<path d="M16477 18393 c-25 -7 -10 -23 21 -23 37 0 60 15 37 24 -18 6 -30 6
-58 -1z"/>
<path d="M15135 18360 c5 -9 4 -11 -3 -6 -21 13 -53 -13 -50 -41 4 -34 32 -52
56 -37 21 14 24 85 3 92 -9 3 -11 0 -6 -8z"/>
<path d="M15430 18343 c0 -10 4 -24 9 -32 12 -19 51 3 51 29 0 16 -7 20 -30
20 -22 0 -30 -5 -30 -17z"/>
<path d="M15550 18250 c0 -11 6 -20 13 -20 8 0 7 -4 -3 -10 -11 -7 -4 -10 27
-10 23 0 45 5 48 10 3 6 16 10 28 11 12 0 16 3 10 6 -7 2 -13 11 -13 19 0 10
-14 14 -55 14 -48 0 -55 -2 -55 -20z"/>
<path d="M15110 17991 c0 -14 6 -19 20 -18 24 2 27 22 4 31 -23 9 -24 8 -24
-13z"/>
<path d="M16610 17910 c0 -5 9 -10 21 -10 11 0 17 5 14 10 -3 6 -13 10 -21 10
-8 0 -14 -4 -14 -10z"/>
<path d="M15421 17694 c-12 -15 -21 -31 -21 -36 0 -14 -23 -34 -48 -42 -12 -4
-29 -21 -37 -37 l-16 -29 50 0 c45 0 51 3 63 28 8 17 23 28 38 30 30 4 50 27
50 58 0 12 6 24 13 27 13 5 -34 27 -58 27 -7 0 -23 -12 -34 -26z"/>
<path d="M15238 17513 c7 -3 16 -2 19 1 4 3 -2 6 -13 5 -11 0 -14 -3 -6 -6z"/>
<path d="M15095 17429 c-4 -5 1 -19 11 -30 l19 -21 17 22 c10 12 18 26 18 31
0 13 -57 11 -65 -2z"/>
<path d="M15030 17330 c0 -5 5 -10 10 -10 6 0 10 5 10 10 0 6 -4 10 -10 10 -5
0 -10 -4 -10 -10z"/>
<path d="M15165 17170 c3 -5 -1 -10 -9 -10 -9 0 -16 -5 -16 -11 0 -10 52 -4
73 8 14 8 -4 23 -29 23 -14 0 -22 -4 -19 -10z"/>
<path d="M19483 17163 c-14 -5 -18 -53 -5 -53 14 0 32 23 32 42 0 18 -5 20
-27 11z"/>
<path d="M19696 16913 c-19 -68 -18 -82 9 -105 14 -12 23 -27 21 -34 -3 -7 1
-20 8 -30 12 -16 15 -15 29 17 23 50 24 61 4 64 -22 4 -36 15 -19 15 21 0 13
46 -11 68 -28 27 -34 27 -41 5z"/>
<path d="M20210 16186 c0 -15 -3 -16 -15 -6 -11 9 -15 9 -15 1 0 -7 -5 -9 -12
-5 -9 5 -9 3 1 -9 7 -9 18 -14 24 -10 5 3 7 2 4 -4 -11 -17 21 -50 53 -55 52
-8 54 6 6 58 -34 37 -45 44 -46 30z m45 -56 c-27 -12 -43 -12 -25 0 8 5 22 9
30 9 10 0 8 -3 -5 -9z"/>
<path d="M11550 17100 c-12 -8 -12 -10 2 -15 26 -10 43 -2 26 12 -8 7 -19 8
-28 3z"/>
<path d="M12180 16570 c0 -5 5 -10 11 -10 5 0 7 5 4 10 -3 6 -8 10 -11 10 -2
0 -4 -4 -4 -10z"/>
<path d="M12221 16561 c-12 -8 -12 -11 0 -23 25 -24 71 -40 83 -28 5 5 20 10
31 10 12 0 25 3 28 7 10 10 -13 32 -28 27 -7 -3 -16 -1 -20 5 -3 6 -11 11 -16
11 -6 0 -7 -4 -4 -10 3 -5 -1 -10 -9 -10 -8 0 -18 5 -21 10 -8 12 -25 13 -44
1z"/>
<path d="M7480 18586 c0 -14 4 -27 9 -30 18 -11 41 6 41 30 0 19 -5 24 -25 24
-20 0 -25 -5 -25 -24z"/>
<path d="M6263 18555 c-15 -17 -17 -75 -3 -75 6 0 10 -7 10 -15 0 -8 7 -15 15
-15 8 0 15 -4 15 -10 0 -18 45 -10 60 10 8 11 22 20 32 20 13 0 18 8 18 30 0
22 -5 30 -18 30 -10 0 -24 9 -32 20 -17 24 -78 27 -97 5z"/>
<path d="M6130 18543 c-23 -9 -60 -45 -60 -60 0 -9 14 -13 43 -13 l43 0 -4 40
c-2 22 -5 40 -6 39 0 0 -8 -3 -16 -6z"/>
<path d="M7900 18460 c0 -5 9 -10 20 -10 11 0 20 5 20 10 0 6 -9 10 -20 10
-11 0 -20 -4 -20 -10z"/>
<path d="M9095 18431 c-44 -18 -54 -42 -43 -98 6 -29 15 -53 19 -53 5 0 9 5 9
10 0 6 6 10 14 10 8 0 16 10 20 23 3 15 17 26 38 32 27 8 34 16 36 41 3 26 -1
33 -20 38 -30 7 -48 7 -73 -3z"/>
<path d="M7602 18348 c-7 -7 -12 -19 -12 -28 0 -9 -5 -21 -11 -27 -6 -6 -8
-16 -4 -22 4 -8 20 -1 48 19 22 16 47 30 54 30 24 0 13 18 -18 29 -40 14 -42
14 -57 -1z"/>
<path d="M9230 18257 c0 -8 -9 -24 -20 -37 -11 -13 -20 -29 -20 -36 0 -7 -6
-14 -12 -17 -10 -3 -10 -7 -1 -19 7 -8 10 -18 6 -21 -3 -4 -1 -7 6 -7 7 0 10
-4 6 -9 -3 -5 10 -14 29 -21 24 -8 38 -20 45 -41 15 -44 43 -37 93 24 24 28
49 63 56 76 13 23 13 23 -13 17 -15 -4 -24 -3 -22 1 3 4 -11 9 -31 10 -28 2
-44 11 -64 35 -16 18 -28 38 -28 45 0 7 -7 13 -15 13 -8 0 -15 -6 -15 -13z"/>
<path d="M7994 18235 c-21 -32 -12 -55 21 -55 29 0 40 19 31 55 -8 32 -31 32
-52 0z"/>
<path d="M8885 18220 c-4 -6 -7 -31 -7 -56 0 -46 14 -74 37 -74 8 0 15 -4 17
-9 2 -4 13 -11 24 -15 30 -9 119 77 126 121 4 30 3 31 -40 37 -69 9 -150 7
-157 -4z m185 -41 c0 -17 -4 -28 -10 -24 -5 3 -10 17 -10 31 0 13 5 24 10 24
6 0 10 -14 10 -31z"/>
<path d="M8468 18163 c7 -3 16 -2 19 1 4 3 -2 6 -13 5 -11 0 -14 -3 -6 -6z"/>
<path d="M24297 17565 c-4 -27 -22 -58 -52 -94 -26 -31 -45 -63 -45 -77 0 -13
-15 -41 -34 -61 -18 -21 -38 -54 -45 -74 -6 -20 -20 -53 -31 -74 -11 -22 -20
-44 -20 -51 0 -6 -6 -17 -13 -23 -8 -6 -14 -31 -15 -56 0 -30 -9 -60 -26 -89
-29 -50 -33 -88 -11 -106 15 -13 15 -14 61 98 10 24 26 48 35 53 10 5 23 28
30 52 14 52 26 79 61 138 16 25 28 58 28 72 0 15 14 53 30 84 17 32 33 69 36
83 18 77 25 124 22 143 -2 15 -6 8 -11 -18z"/>
<path d="M10850 17260 c0 -5 5 -10 10 -10 6 0 10 5 10 10 0 6 -4 10 -10 10 -5
0 -10 -4 -10 -10z"/>
<path d="M28027 16048 c-18 -27 -16 -68 3 -68 12 0 23 41 18 71 l-3 24 -18
-27z"/>
<path d="M25149 14233 c-13 -16 -12 -17 4 -4 16 13 21 21 13 21 -2 0 -10 -8
-17 -17z"/>
<path d="M26756 14487 c-10 -81 -16 -150 -14 -153 7 -7 41 247 37 276 -2 14
-12 -42 -23 -123z"/>
<path d="M26732 14300 c0 -14 2 -19 5 -12 2 6 2 18 0 25 -3 6 -5 1 -5 -13z"/>
<path d="M26722 14250 c0 -14 2 -19 5 -12 2 6 2 18 0 25 -3 6 -5 1 -5 -13z"/>
<path d="M26491 13104 c0 -11 3 -14 6 -6 3 7 2 16 -1 19 -3 4 -6 -2 -5 -13z"/>
</g>
</svg>
